<svg width="162" height="43" viewBox="0 0 162 43" fill="none" xmlns="http://www.w3.org/2000/svg">
<path d="M19.0985 42.9875C17.1378 42.9875 15.5421 41.4247 15.4891 39.4768L5.3292 33.6112C4.80084 33.8974 4.23086 34.0382 3.66642 34.0463L3.61059 34.0466C2.36416 34.0452 1.1524 33.3977 0.484356 32.2406C-0.495995 30.5426 0.0595741 28.3793 1.72001 27.3595V15.628C0.0595741 14.6082 -0.495995 12.4448 0.484356 10.7468C1.14243 9.60702 2.32811 8.96173 3.55481 8.94135L3.61059 8.94086C4.19322 8.94019 4.78342 9.08068 5.3292 9.37625L15.4891 3.5106C15.5416 1.58252 17.1055 0.0317574 19.0388 0.000411987L19.0985 -7.24792e-05C21.0592 -7.24792e-05 22.6549 1.56269 22.7079 3.51057L32.8676 9.3764C33.396 9.09016 33.9661 8.94932 34.5307 8.94123L34.5865 8.94086C35.8329 8.94229 37.0447 9.58975 37.7127 10.7468C38.6931 12.4448 38.1375 14.6082 36.4771 15.628V27.3595C38.1375 28.3793 38.6931 30.5426 37.7127 32.2406C37.0546 33.3805 35.869 34.0257 34.6423 34.0461L34.5865 34.0466C34.0039 34.0473 33.4137 33.9068 32.8679 33.6113L22.7079 39.4769C22.6555 41.405 21.0915 42.9557 19.1583 42.9871L19.0985 42.9875ZM19.0985 5.33009L19.1453 5.32946C19.1492 5.32936 19.1531 5.32924 19.157 5.32911L19.1453 5.32946C19.1609 5.32904 19.1765 5.32841 19.192 5.32758L19.157 5.32911C19.1741 5.32854 19.1911 5.32772 19.208 5.32666L19.192 5.32758C19.2079 5.32673 19.2237 5.32566 19.2394 5.32439L19.208 5.32666C19.2235 5.32568 19.2389 5.3245 19.2543 5.32312L19.2394 5.32439C19.2534 5.32325 19.2673 5.32195 19.2812 5.32049L19.2543 5.32312C19.2713 5.3216 19.2882 5.31983 19.305 5.31782L19.2812 5.32049C19.2968 5.31883 19.3125 5.31696 19.3281 5.31488L19.305 5.31782C19.3193 5.31611 19.3335 5.31423 19.3476 5.31218L19.3281 5.31488C19.3457 5.31253 19.3632 5.30992 19.3807 5.30703L19.3476 5.31218C19.3619 5.3101 19.3762 5.30784 19.3904 5.30541L19.3807 5.30703C19.3955 5.30458 19.4103 5.30194 19.4251 5.29911L19.3904 5.30541C19.4061 5.30274 19.4216 5.29985 19.4372 5.29675L19.4251 5.29911C19.444 5.29546 19.4629 5.2915 19.4817 5.28724L19.4372 5.29675C19.4729 5.28961 19.5083 5.28136 19.5432 5.27204C19.552 5.26973 19.5607 5.26731 19.5695 5.26482L19.5432 5.27204C19.5576 5.2682 19.5719 5.26416 19.5862 5.25996L19.5695 5.26482C19.5823 5.26119 19.595 5.25742 19.6077 5.25349L19.5862 5.25996C20.2983 5.04974 20.8179 4.3909 20.8179 3.61068C20.8179 2.66108 20.0481 1.89127 19.0985 1.89127C18.1489 1.89127 17.3791 2.66108 17.3791 3.61068C17.3791 4.3824 17.8875 5.03538 18.5877 5.25293C18.5964 5.2557 18.6053 5.25835 18.6141 5.26094L18.5877 5.25293C18.6008 5.257 18.614 5.26091 18.6272 5.26468L18.6141 5.26094C18.6282 5.26506 18.6423 5.269 18.6565 5.27277L18.6272 5.26468C18.6424 5.26901 18.6577 5.27314 18.6731 5.27706L18.6565 5.27277C18.6903 5.2817 18.7244 5.28963 18.7588 5.29652C18.7643 5.29762 18.7697 5.29869 18.7752 5.29974L18.7588 5.29652C18.7748 5.29973 18.7909 5.3027 18.807 5.30546L18.7752 5.29974C18.7885 5.30225 18.8017 5.30462 18.8151 5.30683L18.807 5.30546C18.8214 5.30791 18.8359 5.3102 18.8504 5.31229L18.8151 5.30683C18.8328 5.30977 18.8506 5.31244 18.8685 5.31483L18.8504 5.31229C18.8642 5.31429 18.8781 5.31613 18.892 5.31779L18.8685 5.31483C18.8843 5.31694 18.9001 5.31883 18.916 5.32051L18.892 5.31779C18.9089 5.31981 18.9258 5.32159 18.9427 5.32311L18.916 5.32051C18.9298 5.32197 18.9437 5.32327 18.9577 5.3244L18.9427 5.32311C18.9581 5.3245 18.9736 5.32568 18.9891 5.32665L18.9577 5.3244C18.9734 5.32567 18.9892 5.32674 19.005 5.32759L18.9891 5.32665C19.006 5.32772 19.023 5.32853 19.04 5.32911L19.005 5.32759C19.036 5.32925 19.0672 5.33009 19.0985 5.33009ZM24.6879 17.1305L31.0843 13.4376C31.0797 13.4196 31.0753 13.4016 31.071 13.3836C31.0697 13.3781 31.0684 13.3725 31.0671 13.3668C31.0642 13.3544 31.0614 13.3421 31.0587 13.3298C31.0567 13.3208 31.0547 13.3117 31.0528 13.3027C31.0506 13.2921 31.0484 13.2815 31.0462 13.271C31.044 13.2598 31.0417 13.2486 31.0396 13.2374C31.0334 13.2054 31.0276 13.1733 31.0223 13.1412C31.021 13.133 31.0197 13.1248 31.0184 13.1166C31.006 13.038 30.9962 12.9594 30.9891 12.8807C30.9883 12.8718 30.9875 12.863 30.9868 12.8542C30.984 12.8209 30.9817 12.7875 30.9798 12.7542C30.9797 12.7514 30.9795 12.7485 30.9794 12.7457L30.9798 12.7542C30.9789 12.737 30.9781 12.7199 30.9774 12.7027C30.9769 12.6923 30.9766 12.6819 30.9762 12.6715C30.9759 12.66 30.9755 12.6486 30.9753 12.6372C30.9751 12.6285 30.9749 12.6198 30.9748 12.6111C30.9747 12.6024 30.9746 12.5938 30.9745 12.5851C30.9744 12.5772 30.9744 12.5693 30.9744 12.5614L30.9745 12.5851C30.9729 12.3928 30.9867 12.2011 31.0155 12.0121C31.0202 11.9807 31.0254 11.9493 31.031 11.918C31.0335 11.9043 31.036 11.8907 31.0386 11.8771C31.0441 11.8483 31.0499 11.8194 31.0562 11.7907C31.0584 11.7803 31.0607 11.77 31.063 11.7596C31.0647 11.7521 31.0664 11.7447 31.0681 11.7373C31.0697 11.7303 31.0714 11.7234 31.073 11.7164C31.0762 11.703 31.0794 11.6898 31.0827 11.6766C31.0926 11.6372 31.1031 11.598 31.1143 11.5589C31.1223 11.5308 31.1307 11.5029 31.1394 11.475C31.1423 11.4655 31.1453 11.4561 31.1483 11.4468C31.1508 11.4391 31.1533 11.4313 31.1558 11.4236C31.1588 11.4147 31.1618 11.4057 31.1648 11.3968C31.1689 11.3846 31.1731 11.3725 31.1773 11.3604C31.1793 11.3544 31.1814 11.3485 31.1835 11.3426C31.1877 11.3307 31.192 11.319 31.1963 11.3072C31.1972 11.3047 31.1981 11.3022 31.1991 11.2996C31.2047 11.2844 31.2104 11.2694 31.2161 11.2544C31.2297 11.2191 31.2438 11.184 31.2585 11.1491C31.2702 11.1213 31.2823 11.0936 31.2947 11.066C31.2989 11.0567 31.3032 11.0473 31.3075 11.038C31.3103 11.032 31.313 11.026 31.3158 11.0201C31.3217 11.0075 31.3276 10.9949 31.3337 10.9824C31.3379 10.9736 31.3421 10.9649 31.3464 10.9563C31.3503 10.9483 31.3542 10.9404 31.3582 10.9325C31.3633 10.9222 31.3685 10.9119 31.3738 10.9017C31.377 10.8954 31.3804 10.8889 31.3837 10.8825C31.3892 10.8719 31.3948 10.8614 31.4003 10.8509C31.4035 10.845 31.4066 10.8391 31.4098 10.8332C31.4255 10.8042 31.4416 10.7753 31.4582 10.7466L22.2261 5.41634C22.2242 5.4195 22.2224 5.42266 22.2206 5.42581C22.2035 5.45508 22.1861 5.48404 22.1683 5.51274C22.1652 5.51762 22.1622 5.52249 22.1591 5.52736C22.1524 5.53816 22.1455 5.54896 22.1386 5.55972C22.1341 5.56671 22.1296 5.57361 22.1252 5.58049C22.1196 5.58907 22.1139 5.59773 22.1081 5.60636C22.1029 5.6142 22.0977 5.62196 22.0925 5.6297C22.0891 5.63476 22.0856 5.63984 22.0822 5.64491C22.0262 5.72678 21.967 5.80622 21.9047 5.88304C21.8866 5.90546 21.8681 5.92769 21.8494 5.94969C21.832 5.97013 21.8144 5.99038 21.7965 6.01043C21.788 6.01995 21.7795 6.02941 21.771 6.03882C21.7662 6.04406 21.7614 6.04932 21.7566 6.05457C21.7516 6.05996 21.7467 6.06531 21.7417 6.07065C21.7211 6.0928 21.7001 6.11471 21.6789 6.13635C21.6124 6.20431 21.5432 6.2697 21.4715 6.3323L21.465 6.33788C21.4419 6.35795 21.4186 6.37773 21.395 6.39721C21.3911 6.40037 21.3874 6.40347 21.3836 6.40656C21.3748 6.41376 21.3659 6.42098 21.3569 6.42816C21.3489 6.43462 21.3408 6.44104 21.3327 6.44741C21.3283 6.45091 21.3238 6.4544 21.3194 6.45787C21.2902 6.48064 21.2608 6.50296 21.2309 6.52483C21.2291 6.52618 21.2274 6.52744 21.2256 6.5287C21.2166 6.53528 21.2075 6.54187 21.1984 6.54842C21.1766 6.56401 21.1547 6.57935 21.1326 6.59444L21.1233 6.60072C21.0614 6.64276 20.998 6.68293 20.9334 6.72114C20.9271 6.72486 20.9208 6.72857 20.9145 6.73225C20.8882 6.74757 20.8617 6.76257 20.835 6.77724C20.8242 6.78316 20.8135 6.78899 20.8027 6.79477C20.7964 6.79818 20.79 6.80157 20.7836 6.80494C20.7763 6.80883 20.7689 6.81269 20.7615 6.81654C20.7489 6.8231 20.7362 6.82958 20.7235 6.83599C20.7184 6.83857 20.7133 6.84116 20.7081 6.84374C20.6789 6.8583 20.6495 6.87244 20.62 6.8862C20.6132 6.88936 20.6063 6.89252 20.5995 6.89566C20.5691 6.90955 20.5386 6.92299 20.5079 6.93602C20.4777 6.94886 20.4472 6.96131 20.4165 6.97335C20.3883 6.98439 20.36 6.99509 20.3315 7.00545C20.3247 7.00793 20.3179 7.01038 20.3111 7.0128C20.2979 7.01751 20.2845 7.02217 20.2712 7.02675C20.2679 7.02789 20.2647 7.02899 20.2614 7.03009C20.2468 7.03505 20.2321 7.03996 20.2173 7.04476C20.2118 7.04657 20.2062 7.04836 20.2007 7.05014C20.1858 7.05489 20.1709 7.05956 20.156 7.06413C20.1526 7.06517 20.1492 7.0662 20.1458 7.06722C20.1334 7.07096 20.121 7.07464 20.1086 7.07826C20.0979 7.08136 20.0873 7.08441 20.0766 7.08741C20.0739 7.08817 20.0712 7.08891 20.0685 7.08966L20.0686 14.0434C22.0441 14.2876 23.7406 15.4646 24.6879 17.1305ZM13.838 17.2771C14.7219 15.6172 16.3202 14.4415 18.1773 14.0991L18.1773 7.10285C18.1565 7.09738 18.1358 7.09172 18.1151 7.08589C18.106 7.08331 18.0969 7.0807 18.0878 7.07806C18.0181 7.05778 17.9492 7.03543 17.8813 7.0111C17.8752 7.00895 17.8692 7.00677 17.8632 7.00458C17.8499 6.99973 17.8366 6.99482 17.8234 6.98984C17.8188 6.98808 17.8141 6.9863 17.8094 6.98452C17.7968 6.9797 17.7843 6.97483 17.7718 6.96989C17.7654 6.96736 17.759 6.96481 17.7526 6.96224C17.7383 6.95649 17.7241 6.95065 17.7098 6.94473C17.7059 6.94307 17.7019 6.9414 17.6979 6.93972C17.6662 6.92637 17.6348 6.91261 17.6036 6.89841C17.5951 6.89454 17.5867 6.89065 17.5783 6.88673C17.5532 6.87509 17.5283 6.86316 17.5035 6.85094C17.4881 6.84335 17.4728 6.83566 17.4576 6.82787C17.4485 6.82325 17.4394 6.81854 17.4303 6.8138C17.4265 6.8118 17.4228 6.80983 17.419 6.80785C17.4047 6.80031 17.3903 6.79264 17.3761 6.78489C17.371 6.78211 17.3658 6.7793 17.3607 6.77649C17.352 6.77168 17.3433 6.76686 17.3346 6.762C17.3071 6.74654 17.2798 6.73075 17.2527 6.71461C17.2468 6.7111 17.241 6.7076 17.2351 6.70408C17.2239 6.69729 17.2127 6.69042 17.2015 6.68349C17.1945 6.67918 17.1875 6.67484 17.1806 6.67047C17.1737 6.66613 17.1667 6.66174 17.1598 6.65732C17.1518 6.65221 17.1438 6.64711 17.1359 6.64199C17.1106 6.62551 17.0853 6.6087 17.0603 6.59157C17.0516 6.58557 17.0428 6.57952 17.0341 6.57344C16.9895 6.54227 16.9456 6.51013 16.9025 6.47704C16.8941 6.47066 16.8858 6.46422 16.8775 6.45773L16.8708 6.45247C16.8358 6.42499 16.8013 6.39687 16.7674 6.36813C16.7589 6.36103 16.7506 6.35391 16.7423 6.34676C16.7337 6.3393 16.7251 6.33181 16.7165 6.32429C16.7106 6.31915 16.7047 6.31394 16.6989 6.30872C16.6941 6.30445 16.6894 6.30022 16.6847 6.29599C16.6166 6.23476 16.5508 6.17096 16.4876 6.10476C16.4818 6.09871 16.476 6.0926 16.4703 6.08647C16.4442 6.05883 16.4186 6.03078 16.3934 6.00234L16.3918 6.00054C16.3476 5.95043 16.3047 5.89907 16.2632 5.84653C16.2569 5.83866 16.2507 5.83073 16.2445 5.82278C16.2388 5.8154 16.2332 5.80802 16.2275 5.80062C16.2215 5.79284 16.2156 5.78503 16.2097 5.77719C16.2054 5.77135 16.2011 5.76556 16.1967 5.75975C16.189 5.74941 16.1813 5.73894 16.1737 5.72842C16.1691 5.72199 16.1645 5.71558 16.1599 5.70915C16.1539 5.70081 16.1479 5.69246 16.1421 5.68408C16.137 5.67687 16.132 5.66958 16.1269 5.66227C16.1202 5.65266 16.1137 5.64308 16.1071 5.63346C16.1026 5.62674 16.0981 5.61998 16.0936 5.6132C16.0548 5.5553 16.0178 5.49623 15.9825 5.43605L15.9711 5.41634L6.73887 10.7465C6.75838 10.7804 6.77695 10.8139 6.79497 10.8476C6.80117 10.8592 6.80729 10.8708 6.81336 10.8825C6.81791 10.8912 6.82241 10.9 6.82687 10.9087C6.8295 10.9139 6.83211 10.919 6.83471 10.9242C6.85072 10.9559 6.86625 10.9879 6.88131 11.0202C6.8841 11.0261 6.88685 11.032 6.88959 11.038C6.89489 11.0495 6.90013 11.061 6.90531 11.0726C6.90774 11.078 6.91015 11.0834 6.91255 11.0888C6.91786 11.1008 6.9231 11.1129 6.92829 11.1249C6.94997 11.1755 6.97048 11.2264 6.98982 11.2777C7.00833 11.3269 7.02578 11.3765 7.04214 11.4264C7.04416 11.4325 7.04618 11.4387 7.04818 11.445C7.07254 11.5206 7.09438 11.597 7.11371 11.6741C7.11591 11.6829 7.11808 11.6916 7.12021 11.7004C7.12749 11.7304 7.13438 11.7604 7.14089 11.7906C7.14248 11.7979 7.14403 11.8052 7.14555 11.8124C7.14849 11.8265 7.15136 11.8406 7.15414 11.8547C7.15543 11.8612 7.15669 11.8677 7.15794 11.8742C7.16791 11.9262 7.17674 11.9784 7.18442 12.0309C7.18715 12.0495 7.18974 12.0682 7.19219 12.0869C7.19545 12.1118 7.19844 12.1368 7.20118 12.1618C7.20693 12.2142 7.21153 12.2668 7.21499 12.3195C7.21567 12.33 7.21631 12.3404 7.2169 12.3508C7.21736 12.3589 7.21779 12.3669 7.21819 12.375C7.21989 12.4089 7.22112 12.4429 7.22186 12.477C7.22264 12.5131 7.22289 12.5491 7.22259 12.5852C7.22252 12.5938 7.22242 12.6025 7.22228 12.6112C7.22218 12.6177 7.22207 12.624 7.22194 12.6304C7.22122 12.6649 7.22 12.6996 7.21828 12.7342C7.21767 12.7465 7.217 12.7589 7.21626 12.7712C7.21575 12.7796 7.21522 12.788 7.21466 12.7964C7.2142 12.8032 7.21373 12.81 7.21323 12.8168C7.21034 12.8566 7.20678 12.8964 7.20255 12.9362C7.20248 12.9368 7.20241 12.9374 7.20235 12.938L7.20255 12.9362C7.19383 13.0181 7.18227 13.0999 7.16784 13.1816C7.16643 13.1895 7.165 13.1974 7.16355 13.2053C7.1617 13.2154 7.15981 13.2254 7.15787 13.2355C7.1521 13.2654 7.14594 13.2954 7.13938 13.3252C7.13393 13.3501 7.12819 13.375 7.12218 13.3998L13.838 17.2771ZM35.4454 14.0413C36.2678 13.5665 36.5496 12.5149 36.0748 11.6925C35.6 10.8701 34.5484 10.5884 33.726 11.0632C33.0778 11.4374 32.7654 12.1701 32.8948 12.8663C32.8959 12.8731 32.8973 12.8799 32.8986 12.8867L32.8948 12.8663C32.8972 12.8792 32.8997 12.8921 32.9024 12.905L32.8986 12.8867C32.9019 12.9032 32.9054 12.9197 32.9092 12.9362L32.9024 12.905C32.9061 12.9223 32.91 12.9396 32.9142 12.9569L32.9092 12.9362C32.9123 12.9498 32.9156 12.9633 32.9191 12.9769L32.9142 12.9569C32.9177 12.9717 32.9215 12.9864 32.9255 13.0011L32.9191 12.9769C32.9232 12.993 32.9276 13.009 32.9322 13.025L32.9255 13.0011C32.9292 13.0148 32.9331 13.0285 32.9372 13.0422L32.9322 13.025C32.9467 13.0756 32.9636 13.1257 32.9829 13.1752C32.9856 13.1822 32.9884 13.1891 32.9912 13.1961L32.9829 13.1752C32.989 13.1909 32.9954 13.2065 33.002 13.222L32.9912 13.1961C32.997 13.2103 33.003 13.2245 33.0091 13.2387L33.002 13.222C33.0075 13.2351 33.0132 13.2481 33.0191 13.2611L33.0091 13.2387C33.0165 13.2555 33.0241 13.2722 33.032 13.2889L33.0191 13.2611C33.0254 13.275 33.0319 13.2888 33.0386 13.3026L33.032 13.2889C33.0386 13.3026 33.0453 13.3163 33.0522 13.3299L33.0386 13.3026C33.0468 13.3194 33.0553 13.3362 33.064 13.3528L33.0522 13.3299C33.0621 13.3495 33.0725 13.3689 33.0832 13.3882L33.0967 13.4119C33.1202 13.4527 33.1452 13.4922 33.1716 13.5305C33.1754 13.536 33.1792 13.5414 33.183 13.5467L33.1716 13.5305C33.1901 13.5572 33.2092 13.5833 33.2289 13.6087C33.2324 13.6132 33.2358 13.6176 33.2393 13.6219L33.2289 13.6087C33.237 13.619 33.2451 13.6293 33.2534 13.6394L33.2393 13.6219C33.2504 13.636 33.2618 13.6498 33.2733 13.6634L33.2534 13.6394C33.2627 13.6509 33.2722 13.6622 33.2818 13.6734L33.2733 13.6634C33.2819 13.6737 33.2906 13.6838 33.2995 13.6938L33.2818 13.6734C33.3048 13.7003 33.3286 13.7264 33.3531 13.7516C33.3708 13.7698 33.3889 13.7876 33.4073 13.8049C33.4243 13.8209 33.4416 13.8366 33.4592 13.8519C33.4688 13.8601 33.4783 13.8682 33.4879 13.8761L33.4592 13.8519C33.4706 13.8618 33.482 13.8714 33.4936 13.8809L33.4879 13.8761C34.0257 14.322 34.805 14.411 35.4454 14.0413ZM4.80324 13.7921L4.8171 13.7786C4.83465 13.7614 4.85185 13.7437 4.8687 13.7256C4.87106 13.723 4.87333 13.7206 4.87559 13.7181L4.8687 13.7256C4.87927 13.7142 4.8897 13.7027 4.89999 13.691L4.87559 13.7181C4.88681 13.7059 4.89789 13.6935 4.9088 13.681L4.89999 13.691C4.91068 13.6789 4.92121 13.6666 4.93158 13.6542L4.9088 13.681C4.91814 13.6702 4.92735 13.6593 4.93645 13.6483L4.93158 13.6542C4.94035 13.6436 4.94901 13.633 4.95755 13.6222L4.93645 13.6483C4.94845 13.6338 4.96024 13.619 4.97182 13.604L4.95755 13.6222C4.96725 13.61 4.97681 13.5976 4.98621 13.585L4.97182 13.604C4.98052 13.5927 4.98909 13.5813 4.99755 13.5697L4.98621 13.585C4.99533 13.5728 5.00431 13.5605 5.01313 13.5481L4.99755 13.5697C5.00714 13.5566 5.01657 13.5434 5.02583 13.5299L5.01313 13.5481C5.04409 13.5044 5.07323 13.459 5.10041 13.4119C5.10495 13.4041 5.10942 13.3962 5.11383 13.3883L5.10041 13.4119C5.12062 13.3769 5.13945 13.3415 5.15693 13.3057C5.16121 13.297 5.16541 13.2882 5.16953 13.2794L5.15693 13.3057C5.1619 13.2956 5.16675 13.2854 5.1715 13.2752L5.16953 13.2794C5.17628 13.265 5.18282 13.2505 5.18914 13.2359C5.19101 13.2317 5.19286 13.2274 5.19469 13.2231L5.18914 13.2359C5.21683 13.1722 5.24044 13.1074 5.26001 13.0418C5.26122 13.0377 5.26241 13.0337 5.26358 13.0296L5.26001 13.0418C5.26443 13.0269 5.26865 13.0121 5.27266 12.9971L5.26358 13.0296C5.26818 13.0137 5.27254 12.9978 5.27666 12.9819L5.27266 12.9971C5.27647 12.983 5.2801 12.9688 5.28354 12.9545L5.27666 12.9819C5.28494 12.9499 5.29225 12.9178 5.29862 12.8856C5.29958 12.8811 5.30044 12.8767 5.30129 12.8722L5.29862 12.8856C5.43737 12.1836 5.12527 11.4409 4.47106 11.0632C3.64868 10.5884 2.59711 10.8701 2.12231 11.6925C1.64751 12.5149 1.92928 13.5665 2.75166 14.0413C3.43044 14.4332 4.26538 14.3096 4.80324 13.7921ZM6.12888 27.8456L10.2249 25.4807C9.52845 24.6232 9.11106 23.53 9.11106 22.3392C9.11106 20.5472 10.0563 18.9761 11.4755 18.0971L6.21203 15.0582C6.1907 15.0804 6.16912 15.1023 6.14729 15.1238C6.10954 15.1611 6.07109 15.1974 6.03196 15.2327C5.87312 15.3762 5.70305 15.504 5.52414 15.6155C5.45446 15.659 5.38346 15.6999 5.31126 15.7383L5.30904 15.7395C5.27624 15.7569 5.2432 15.7739 5.20992 15.7902C5.16205 15.8138 5.11375 15.8363 5.06502 15.8577C5.04864 15.8649 5.03223 15.8719 5.01577 15.8789C4.97847 15.8946 4.94089 15.9097 4.90307 15.9241C4.87879 15.9334 4.8545 15.9424 4.83012 15.9511C4.78444 15.9675 4.73843 15.9829 4.69215 15.9974C4.6639 16.0063 4.63557 16.0148 4.60714 16.0229C4.55714 16.0373 4.50682 16.0505 4.45624 16.0627C4.42617 16.07 4.39597 16.0768 4.36568 16.0833C4.33669 16.0895 4.30759 16.0954 4.27843 16.1009C4.27251 16.102 4.26668 16.1031 4.26084 16.1041C4.23885 16.1082 4.21674 16.112 4.1946 16.1157C4.16531 16.1205 4.13602 16.1249 4.10668 16.129C4.10353 16.1294 4.10044 16.1299 4.09734 16.1303C4.09125 16.1311 4.08508 16.1319 4.07891 16.1327C4.04461 16.1373 4.01027 16.1413 3.97586 16.1448C3.94264 16.1482 3.90944 16.1511 3.8762 16.1536C3.86846 16.1542 3.86072 16.1547 3.85298 16.1552C3.81923 16.1575 3.78542 16.1594 3.75156 16.1607C3.74468 16.161 3.73782 16.1612 3.73096 16.1615C3.70995 16.1622 3.68894 16.1627 3.66792 16.1631L3.61213 16.1636L3.61135 16.1636V26.8239H3.61213C3.72378 26.824 3.83516 26.8294 3.94588 26.8398C3.96567 26.8416 3.98541 26.8436 4.00513 26.8458C4.05027 26.8508 4.09534 26.8566 4.14027 26.8633C4.17164 26.868 4.20291 26.8731 4.2341 26.8785C4.27584 26.8859 4.31741 26.8939 4.35883 26.9027C4.39208 26.9097 4.42516 26.9172 4.45812 26.9252L4.51777 26.9401C4.62936 26.9691 4.73957 27.0033 4.84798 27.0428C4.8731 27.0519 4.89803 27.0613 4.92286 27.071C4.97463 27.0911 5.02552 27.1123 5.07593 27.1346C5.08453 27.1384 5.09321 27.1423 5.10187 27.1462C5.12264 27.1556 5.14324 27.1652 5.16375 27.1749C5.20266 27.1934 5.24126 27.2126 5.27954 27.2325C5.3864 27.288 5.49069 27.349 5.59198 27.4153C5.61756 27.432 5.64295 27.4491 5.66813 27.4665C5.67842 27.4737 5.6887 27.4808 5.69894 27.4881C5.73075 27.5106 5.7622 27.5336 5.7933 27.5572C5.91029 27.6458 6.0224 27.742 6.12888 27.8456ZM32.0965 27.8188L32.1157 27.8002C32.1782 27.7416 32.2425 27.6855 32.3085 27.6319C32.4252 27.5372 32.5471 27.4504 32.6734 27.3717L32.6753 27.3705C32.7028 27.3534 32.7306 27.3366 32.7585 27.3202C32.7651 27.3164 32.7717 27.3126 32.7783 27.3087L32.7585 27.3202C32.8125 27.2887 32.8672 27.2585 32.9226 27.2298C33.0017 27.1889 33.0821 27.151 33.1637 27.1161C33.2861 27.0638 33.4112 27.0182 33.5384 26.9797C33.5472 26.9771 33.556 26.9744 33.5647 26.9719C33.5931 26.9635 33.6217 26.9555 33.6503 26.9478C33.6971 26.9352 33.7442 26.9236 33.7914 26.9129C33.8025 26.9104 33.8137 26.908 33.8248 26.9056C33.8565 26.8987 33.8884 26.8923 33.9203 26.8863C33.9231 26.8858 33.9259 26.8852 33.9287 26.8847C33.9447 26.8818 33.9607 26.8789 33.9767 26.8762L33.9287 26.8847C33.9532 26.8802 33.9777 26.8759 34.0023 26.8719C34.0347 26.8665 34.0671 26.8617 34.0997 26.8572C34.1343 26.8525 34.1689 26.8483 34.2037 26.8445C34.2096 26.8439 34.2157 26.8433 34.2217 26.8426C34.2542 26.8393 34.2867 26.8364 34.3193 26.834C34.3275 26.8334 34.3358 26.8328 34.344 26.8322C34.3764 26.83 34.4087 26.8283 34.4411 26.8269C34.4495 26.8266 34.4579 26.8263 34.4663 26.826C34.4701 26.8259 34.4738 26.8258 34.4775 26.8256C34.5135 26.8245 34.5496 26.8239 34.5856 26.8239L34.5779 26.8241L34.585 26.8239L34.5856 26.8239V16.1636H34.585C34.5185 16.1635 34.4521 16.1616 34.3859 16.1578C34.3583 16.1563 34.3307 16.1544 34.3032 16.1522C34.2661 16.1493 34.229 16.1458 34.192 16.1417C34.1534 16.1374 34.1148 16.1325 34.0764 16.127C34.0503 16.1233 34.0243 16.1193 33.9984 16.115C33.9671 16.1098 33.9358 16.1042 33.9047 16.0982C33.8748 16.0925 33.8451 16.0863 33.8154 16.0799C33.7303 16.0613 33.6459 16.0396 33.5624 16.0149C33.4654 15.9863 33.37 15.9537 33.2761 15.9172C33.2423 15.9041 33.2086 15.8904 33.1752 15.8763C33.1646 15.8718 33.1539 15.8672 33.1433 15.8626C33.0987 15.8432 33.0545 15.8229 33.0108 15.8018C32.988 15.7907 32.9652 15.7795 32.9426 15.7679C32.8722 15.732 32.8029 15.6938 32.7348 15.6533C32.7141 15.6409 32.6936 15.6284 32.6731 15.6156L32.6215 15.5829C32.6043 15.5717 32.5871 15.5604 32.5701 15.549C32.3707 15.4151 32.1836 15.2605 32.012 15.0859L25.4959 18.8478C27.5706 19.1084 29.1805 20.8625 29.2152 22.9996L29.2157 23.07C29.2157 24.0408 28.8906 24.9358 28.3433 25.6518L32.0965 27.8188ZM18.8761 25.4341L24.9602 25.4341C26.2659 25.4341 27.3244 24.3757 27.3244 23.07C27.3244 21.7643 26.2659 20.7058 24.9602 20.7058L23.6576 20.7057L23.5877 19.8359C23.409 17.6141 21.547 15.8877 19.3032 15.8877C17.5108 15.8877 15.9258 16.9948 15.2912 18.6391L15.0577 19.2443L14.0973 19.2443C12.3881 19.2443 11.0024 20.6299 11.0024 22.3392C11.0024 24.0485 12.3881 25.4341 14.0973 25.4341H18.7199C18.7409 25.4341 18.7615 25.4339 18.7816 25.4335L18.8019 25.4331L18.8491 25.434L18.8761 25.4341ZM15.9711 37.5711L15.9813 37.5534C15.9963 37.5278 16.0116 37.5025 16.0272 37.4773C16.032 37.4695 16.0369 37.4618 16.0417 37.4541C16.0461 37.4472 16.0504 37.4403 16.0548 37.4334C16.0602 37.425 16.0656 37.4167 16.071 37.4084C16.1175 37.3371 16.1664 37.2675 16.2176 37.1998C16.2428 37.1665 16.2685 37.1338 16.2947 37.1015C16.3371 37.0493 16.3809 36.9983 16.4261 36.9487C16.4303 36.9441 16.4344 36.9395 16.4386 36.935C16.4469 36.9259 16.4553 36.9169 16.4638 36.9078C16.4683 36.903 16.4728 36.8983 16.4772 36.8936C16.4859 36.8845 16.4946 36.8753 16.5034 36.8662C16.5807 36.7863 16.6617 36.71 16.7461 36.6375C16.784 36.6049 16.8226 36.5731 16.8619 36.542C16.867 36.5379 16.8723 36.5338 16.8776 36.5297C16.8869 36.5224 16.8963 36.5151 16.9057 36.5079C16.9141 36.5015 16.9225 36.4951 16.931 36.4887C16.9366 36.4846 16.9422 36.4804 16.9478 36.4762C16.9726 36.4577 16.9977 36.4396 17.023 36.4218C17.0299 36.417 17.0368 36.4122 17.0437 36.4074C17.0679 36.3906 17.0924 36.374 17.1171 36.3578C17.1278 36.3507 17.1386 36.3437 17.1495 36.3368C17.1801 36.3171 17.2109 36.2979 17.2421 36.2792C17.249 36.275 17.256 36.2709 17.263 36.2668C17.2887 36.2515 17.3146 36.2367 17.3407 36.2221C17.3478 36.2181 17.3549 36.2142 17.3621 36.2102C17.371 36.2053 17.3799 36.2005 17.3888 36.1957C17.4168 36.1806 17.445 36.1659 17.4736 36.1515C17.478 36.1492 17.4825 36.147 17.487 36.1447C17.4979 36.1393 17.5088 36.1339 17.5198 36.1286C17.5277 36.1247 17.5356 36.1209 17.5435 36.1171C17.57 36.1045 17.5966 36.0921 17.6234 36.0801C17.65 36.0682 17.6767 36.0567 17.7035 36.0454C17.7345 36.0324 17.7658 36.0198 17.7973 36.0076C17.8325 35.994 17.8679 35.981 17.9037 35.9684C17.9086 35.9667 17.9135 35.965 17.9184 35.9633C17.9487 35.9528 17.9792 35.9428 18.0099 35.9331C18.017 35.9308 18.024 35.9286 18.031 35.9265C18.0408 35.9234 18.0508 35.9204 18.0608 35.9174C18.0699 35.9147 18.0789 35.912 18.0879 35.9094C18.0987 35.9063 18.1095 35.9032 18.1204 35.9001C18.1254 35.8987 18.1304 35.8973 18.1353 35.8959C18.1447 35.8933 18.1542 35.8908 18.1637 35.8882L18.1774 35.8848L18.1774 27.3256L14.0973 27.3255C13.265 27.3255 12.4803 27.1216 11.7905 26.7609L7.09253 29.4733C7.10196 29.5074 7.11087 29.5415 7.11926 29.5757C7.12667 29.6058 7.13368 29.6361 7.14029 29.6664C7.14647 29.6947 7.15228 29.723 7.15775 29.7514C7.15984 29.7622 7.16186 29.7729 7.16383 29.7837C7.1658 29.7944 7.16773 29.8052 7.16961 29.816C7.18313 29.8938 7.19403 29.9716 7.20236 30.0496C7.20388 30.0638 7.20531 30.078 7.20666 30.0922C7.20914 30.1184 7.21132 30.1444 7.21322 30.1705C7.21387 30.1794 7.21448 30.1882 7.21506 30.1971C7.21584 30.2091 7.21657 30.2212 7.21724 30.2332C7.21769 30.2415 7.21812 30.2498 7.21852 30.258C7.22016 30.2921 7.22132 30.3261 7.222 30.3601C7.2222 30.37 7.22235 30.38 7.22247 30.3899C7.22256 30.3975 7.22262 30.4051 7.22266 30.4128L7.22247 30.3899C7.22301 30.4363 7.22265 30.4825 7.22141 30.5287C7.22063 30.5578 7.2195 30.5869 7.21802 30.616C7.21757 30.6246 7.2171 30.6333 7.2166 30.6419C7.2161 30.6506 7.21556 30.6592 7.21499 30.6679C7.21035 30.7388 7.20362 30.8095 7.19483 30.8799C7.1923 30.9002 7.18959 30.9205 7.18671 30.9407C7.18507 30.9523 7.18337 30.9639 7.18161 30.9754L7.18671 30.9407C7.17838 30.9994 7.16862 31.0578 7.15744 31.1159C7.15617 31.1225 7.15487 31.1291 7.15356 31.1357C7.14287 31.1897 7.13094 31.2435 7.1178 31.2969C7.1086 31.3343 7.0988 31.3716 7.08841 31.4088C7.08643 31.4158 7.08443 31.4229 7.08242 31.4299C7.08099 31.4349 7.07952 31.44 7.07804 31.4451L7.08242 31.4299C7.07101 31.4697 7.05893 31.5093 7.04618 31.5487C7.04439 31.5542 7.0426 31.5597 7.04078 31.5652C7.03684 31.5772 7.03284 31.5892 7.02877 31.6011C7.02704 31.6062 7.0253 31.6112 7.02356 31.6163C7.01221 31.6491 7.00039 31.6818 6.98809 31.7143C6.96628 31.772 6.943 31.8291 6.91827 31.8857C6.90029 31.9267 6.88153 31.9675 6.862 32.008C6.85729 32.0177 6.85249 32.0276 6.84763 32.0374C6.84376 32.0452 6.83989 32.053 6.83598 32.0608C6.83101 32.0707 6.82594 32.0806 6.82083 32.0906C6.81763 32.0968 6.81443 32.103 6.81121 32.1091C6.80567 32.1197 6.80009 32.1303 6.79445 32.1409C6.77663 32.1742 6.75821 32.2074 6.73927 32.2403L6.73887 32.241L15.9711 37.5711ZM22.226 37.5711L31.4582 32.241C31.4431 32.2148 31.4284 32.1885 31.414 32.162C31.4102 32.1549 31.4064 32.1478 31.4026 32.1408C31.397 32.1303 31.3914 32.1197 31.3859 32.1091C31.3826 32.103 31.3794 32.0968 31.3763 32.0906C31.3705 32.0793 31.3648 32.0681 31.3591 32.0568C31.3563 32.0511 31.3534 32.0454 31.3505 32.0396C31.3449 32.0283 31.3394 32.017 31.334 32.0057C31.3298 31.9971 31.3257 31.9883 31.3215 31.9796C31.3199 31.9761 31.3182 31.9725 31.3166 31.969L31.3215 31.9796C31.3136 31.9628 31.3058 31.946 31.2982 31.9291C31.2856 31.9013 31.2732 31.8732 31.2613 31.8449L31.2599 31.8417C31.2286 31.7675 31.1998 31.6923 31.1735 31.6163C31.1718 31.6112 31.17 31.6062 31.1683 31.6011C31.1642 31.5892 31.1602 31.5772 31.1563 31.5652C31.1545 31.5597 31.1527 31.5542 31.1509 31.5487C31.1473 31.5375 31.1437 31.5262 31.1402 31.515C31.1313 31.4867 31.1228 31.4583 31.1146 31.4298C31.1126 31.4229 31.1107 31.4158 31.1087 31.4088C31.0983 31.3716 31.0885 31.3343 31.0793 31.2969C31.0709 31.2629 31.0631 31.2288 31.0557 31.1946C31.054 31.1866 31.0523 31.1786 31.0506 31.1705C31.044 31.1388 31.0378 31.1071 31.0321 31.0753C31.0275 31.05 31.0232 31.0245 31.0191 30.999L31.0177 30.9901C30.9893 30.8084 30.9747 30.6242 30.9744 30.4392C30.9744 30.4305 30.9744 30.4216 30.9744 30.4128C30.9745 30.4051 30.9745 30.3975 30.9746 30.3899L30.9744 30.4128C30.9745 30.3952 30.9747 30.3777 30.9751 30.3601C30.9754 30.346 30.9757 30.3319 30.9762 30.3178C30.9765 30.3089 30.9768 30.2999 30.9771 30.291C30.9775 30.28 30.978 30.269 30.9786 30.258C30.9789 30.2509 30.9793 30.2438 30.9797 30.2366C30.9813 30.2055 30.9834 30.1745 30.9859 30.1434C30.9869 30.132 30.9878 30.1206 30.9889 30.1092C30.996 30.0297 31.0058 29.9502 31.0184 29.8709C31.0193 29.865 31.0202 29.8591 31.0212 29.8533C31.027 29.8176 31.0334 29.7819 31.0403 29.7463C31.0415 29.7399 31.0428 29.7336 31.0441 29.7272C31.0468 29.7134 31.0497 29.6996 31.0526 29.6858C31.054 29.6794 31.0554 29.6729 31.0568 29.6664C31.059 29.6562 31.0613 29.6461 31.0636 29.636C31.0661 29.6246 31.0688 29.6132 31.0715 29.6017C31.0795 29.568 31.0881 29.5343 31.0971 29.5007C31.1009 29.4867 31.1047 29.4725 31.1087 29.4584C31.1108 29.451 31.1129 29.4435 31.1151 29.4361L26.7654 26.9248C26.2174 27.1818 25.6056 27.3255 24.9602 27.3255L20.0687 27.3256L20.0687 35.8979C20.0865 35.9028 20.1043 35.9079 20.122 35.9131C20.1273 35.9147 20.1326 35.9163 20.138 35.9179C20.1507 35.9217 20.1633 35.9256 20.1759 35.9295C20.1823 35.9315 20.1887 35.9335 20.1951 35.9356C20.2067 35.9392 20.2181 35.943 20.2296 35.9467C20.2362 35.9489 20.2429 35.9511 20.2496 35.9534C20.2809 35.9639 20.312 35.9748 20.3429 35.9862C20.3481 35.9881 20.3534 35.9901 20.3587 35.992C20.3691 35.9959 20.3793 35.9998 20.3895 36.0037C20.4171 36.0142 20.4445 36.0251 20.4717 36.0363C20.5126 36.0532 20.5531 36.0707 20.5932 36.089C20.6151 36.0989 20.6368 36.1091 20.6584 36.1194C20.6657 36.1229 20.673 36.1265 20.6804 36.1301C20.7253 36.152 20.7697 36.1748 20.8136 36.1986C20.8249 36.2047 20.8361 36.2108 20.8473 36.217C20.8524 36.2199 20.8575 36.2227 20.8626 36.2256C20.872 36.2308 20.8814 36.2361 20.8907 36.2415C20.9004 36.247 20.91 36.2526 20.9196 36.2582C20.9263 36.2621 20.933 36.2661 20.9398 36.2701C20.9512 36.2769 20.9626 36.2838 20.974 36.2907C20.9775 36.2928 20.981 36.295 20.9844 36.2971C20.9979 36.3053 21.0113 36.3137 21.0246 36.3221C21.0294 36.3251 21.034 36.3281 21.0387 36.3311C21.0472 36.3365 21.0557 36.342 21.0642 36.3475C21.0726 36.353 21.0811 36.3585 21.0896 36.3641C21.0974 36.3693 21.1051 36.3744 21.1128 36.3796C21.1206 36.3849 21.1285 36.3902 21.1363 36.3956C21.1471 36.403 21.1579 36.4104 21.1686 36.418C21.1986 36.439 21.2283 36.4605 21.2577 36.4825C21.2797 36.4989 21.3015 36.5156 21.3231 36.5325C21.3304 36.5382 21.3376 36.5439 21.3449 36.5497C21.3982 36.5921 21.4503 36.636 21.5011 36.6813C21.5071 36.6867 21.5132 36.6922 21.5193 36.6977C21.5307 36.708 21.5419 36.7183 21.5531 36.7286C21.5569 36.7321 21.5607 36.7357 21.5645 36.7392C21.5694 36.7438 21.5743 36.7484 21.5791 36.753C21.5888 36.7622 21.5985 36.7714 21.6081 36.7807C21.6131 36.7855 21.618 36.7903 21.6228 36.795C21.6288 36.8008 21.6347 36.8067 21.6407 36.8126L21.6517 36.8236C21.6549 36.8268 21.658 36.8299 21.6612 36.8331C21.6825 36.8546 21.7036 36.8764 21.7244 36.8984L21.7289 36.9032C21.7459 36.9212 21.7627 36.9395 21.7793 36.9579C21.7931 36.9732 21.8068 36.9886 21.8204 37.0042C21.8402 37.0268 21.8597 37.0498 21.8789 37.0729C21.8841 37.0792 21.8893 37.0855 21.8944 37.0918C21.9019 37.101 21.9094 37.1102 21.9169 37.1195C21.9351 37.1423 21.9531 37.1653 21.9709 37.1885C21.9763 37.1957 21.9818 37.2029 21.9873 37.2102C21.992 37.2164 21.9967 37.2227 22.0013 37.229C22.0088 37.2391 22.0163 37.2493 22.0236 37.2594C22.0276 37.2649 22.0316 37.2704 22.0355 37.276C22.0431 37.2865 22.0507 37.2972 22.0582 37.3079C22.0618 37.3131 22.0655 37.3183 22.0691 37.3236C22.0757 37.3331 22.0823 37.3427 22.0888 37.3523C22.0936 37.3595 22.0984 37.3666 22.1032 37.3738C22.1393 37.4278 22.1739 37.4827 22.2071 37.5387L22.226 37.5711ZM4.47106 31.9243C5.12055 31.5493 5.43284 30.8146 5.30156 30.1171C5.30069 30.1121 5.29971 30.107 5.2987 30.1019L5.30156 30.1171C5.29626 30.089 5.29024 30.0609 5.2835 30.033C5.25431 29.912 5.21165 29.7932 5.15539 29.6786C5.15276 29.6732 5.15005 29.6678 5.1473 29.6623L5.15539 29.6786C5.1494 29.6664 5.14325 29.6543 5.13695 29.6422L5.1473 29.6623C5.13956 29.647 5.13156 29.6317 5.12331 29.6165L5.10041 29.5756C5.07698 29.535 5.05209 29.4956 5.02583 29.4576C5.02191 29.4519 5.01796 29.4462 5.01398 29.4406L5.02583 29.4576C5.0173 29.4452 5.00861 29.433 4.99979 29.4208L5.01398 29.4406C5.00477 29.4276 4.9954 29.4147 4.98587 29.402L4.99979 29.4208C4.98959 29.4068 4.97919 29.393 4.96861 29.3794L4.98587 29.402C4.97765 29.391 4.9693 29.3802 4.96085 29.3694L4.96861 29.3794C4.95869 29.3666 4.94862 29.354 4.93838 29.3415L4.96085 29.3694C4.95134 29.3574 4.94168 29.3454 4.9319 29.3337L4.93838 29.3415C4.92036 29.3196 4.90185 29.2982 4.88287 29.2773C4.35064 28.6917 3.46494 28.5344 2.75166 28.9462C1.92928 29.421 1.64751 30.4726 2.12231 31.295C2.59711 32.1173 3.64868 32.3991 4.47106 31.9243ZM36.0748 31.295C36.5496 30.4726 36.2678 29.421 35.4454 28.9462C34.7936 28.5699 33.9978 28.6689 33.4593 29.1356C33.4481 29.1452 33.4371 29.155 33.4261 29.165L33.3938 29.1954C33.376 29.2125 33.3586 29.2301 33.3414 29.2481C33.3373 29.2524 33.3331 29.2568 33.3291 29.2612L33.3414 29.2481C33.3323 29.2576 33.3234 29.2673 33.3145 29.277L33.3291 29.2612C33.3192 29.2718 33.3094 29.2825 33.2998 29.2934L33.3145 29.277C33.3042 29.2884 33.294 29.2999 33.2839 29.3115L33.2998 29.2934C33.2895 29.305 33.2794 29.3167 33.2694 29.3286L33.2839 29.3115C33.274 29.3231 33.2641 29.3348 33.2544 29.3467L33.2694 29.3286C33.2386 29.3653 33.2092 29.4035 33.1813 29.4431C33.1781 29.4477 33.1749 29.4523 33.1716 29.457L33.1813 29.4431C33.1514 29.4856 33.1231 29.5298 33.0967 29.5756C33.0888 29.5892 33.0811 29.603 33.0736 29.6168C33.0708 29.622 33.068 29.6273 33.0652 29.6325L33.0736 29.6168C33.0653 29.6321 33.0573 29.6475 33.0495 29.663L33.0652 29.6325C33.0575 29.6471 33.05 29.6618 33.0427 29.6765L33.0495 29.663C33.0429 29.6759 33.0366 29.6889 33.0304 29.702L33.0427 29.6765C33.0351 29.692 33.0277 29.7075 33.0206 29.723L33.0304 29.702C33.0154 29.7338 33.0014 29.7659 32.9885 29.7982C32.9866 29.8029 32.9847 29.8075 32.9829 29.8122L32.9885 29.7982C32.9634 29.8609 32.9422 29.9245 32.9248 29.9889C32.9227 29.9969 32.9206 30.0048 32.9186 30.0127L32.9248 29.9889C32.9209 30.0035 32.9171 30.0181 32.9136 30.0328L32.9186 30.0127C32.915 30.0268 32.9116 30.041 32.9084 30.0552L32.9136 30.0328C32.9096 30.0493 32.9058 30.0659 32.9023 30.0825L32.9084 30.0552C32.9049 30.0704 32.9017 30.0856 32.8987 30.1009L32.9023 30.0825C32.8995 30.0959 32.8969 30.1093 32.8944 30.1226L32.8987 30.1009C32.7594 30.8032 33.0715 31.5464 33.726 31.9243C34.5484 32.3991 35.6 32.1173 36.0748 31.295ZM19.0985 41.0962C20.0481 41.0962 20.8179 40.3264 20.8179 39.3768C20.8179 38.6498 20.3668 38.0282 19.7292 37.7767C19.7245 37.7747 19.7198 37.7729 19.7151 37.7711L19.7292 37.7767C19.7174 37.7721 19.7056 37.7676 19.6937 37.7632L19.7151 37.7711C19.7012 37.7658 19.6872 37.7606 19.6731 37.7556L19.6937 37.7632C19.6804 37.7583 19.6671 37.7535 19.6536 37.749L19.6731 37.7556C19.659 37.7506 19.6448 37.7458 19.6306 37.7412L19.6536 37.749C19.6388 37.7439 19.6238 37.739 19.6088 37.7344L19.6306 37.7412C19.6158 37.7364 19.601 37.7319 19.5861 37.7275L19.6088 37.7344C19.5957 37.7303 19.5826 37.7264 19.5695 37.7227L19.5861 37.7275C19.5719 37.7233 19.5575 37.7192 19.5431 37.7154L19.5695 37.7227C19.5539 37.7183 19.5383 37.7141 19.5226 37.7101L19.5431 37.7154C19.5082 37.7061 19.4729 37.6979 19.4372 37.6907C19.4297 37.6892 19.4221 37.6878 19.4146 37.6864L19.4372 37.6907C19.4236 37.688 19.41 37.6855 19.3963 37.6831L19.4146 37.6864C19.3991 37.6835 19.3836 37.6808 19.368 37.6784L19.3963 37.6831C19.3798 37.6802 19.3633 37.6776 19.3467 37.6752L19.368 37.6784C19.3571 37.6767 19.3461 37.6751 19.3352 37.6735L19.3467 37.6752C19.3296 37.6727 19.3125 37.6705 19.2953 37.6685L19.3352 37.6735C19.32 37.6715 19.3049 37.6696 19.2897 37.6679L19.2953 37.6685C19.2809 37.6669 19.2664 37.6654 19.2519 37.6641L19.2897 37.6679C19.2733 37.6661 19.2568 37.6645 19.2403 37.6631L19.2519 37.6641C19.2357 37.6627 19.2195 37.6615 19.2032 37.6605L19.2403 37.6631C19.2246 37.6619 19.2089 37.6608 19.1931 37.6599L19.2032 37.6605C19.1879 37.6596 19.1725 37.6589 19.1571 37.6584L19.1931 37.6599C19.1618 37.6582 19.1303 37.6574 19.0985 37.6574L19.0518 37.658C19.0479 37.6581 19.044 37.6582 19.04 37.6584L19.0517 37.658C19.0358 37.6584 19.0199 37.6591 19.004 37.6599L19.04 37.6584C19.0246 37.6589 19.0092 37.6596 18.9939 37.6605L19.004 37.6599C18.9883 37.6608 18.9725 37.6619 18.9568 37.6632L18.9939 37.6605C18.9776 37.6615 18.9614 37.6627 18.9452 37.6641L18.9568 37.6632C18.9403 37.6645 18.9238 37.6661 18.9074 37.6679L18.9452 37.6641C18.9307 37.6654 18.9162 37.6669 18.9018 37.6685L18.9074 37.6679C18.892 37.6696 18.8766 37.6715 18.8612 37.6737L18.9018 37.6685C18.885 37.6704 18.8683 37.6726 18.8517 37.675L18.8612 37.6737C18.85 37.6752 18.8387 37.6769 18.8275 37.6786L18.8517 37.675C18.8346 37.6774 18.8176 37.6801 18.8006 37.6831L18.8275 37.6786C18.8139 37.6808 18.8003 37.6831 18.7867 37.6856L18.8006 37.6831C18.7866 37.6856 18.7727 37.6882 18.7588 37.691L18.7867 37.6856C18.7484 37.6926 18.7106 37.7009 18.6731 37.7104C18.6676 37.7118 18.6621 37.7133 18.6566 37.7147L18.6731 37.7104C18.6577 37.7143 18.6424 37.7184 18.6272 37.7228L18.6566 37.7147C18.6424 37.7185 18.6282 37.7224 18.6142 37.7266L18.6272 37.7228C18.6134 37.7267 18.5998 37.7307 18.5862 37.735L18.6142 37.7266C18.5985 37.7311 18.583 37.7359 18.5675 37.741L18.5862 37.735C18.5719 37.7394 18.5577 37.744 18.5435 37.7489L18.5675 37.741C18.5529 37.7457 18.5384 37.7506 18.5239 37.7557L18.5435 37.7489C18.5301 37.7534 18.5167 37.7582 18.5034 37.7631L18.5239 37.7557C18.5097 37.7608 18.4955 37.766 18.4814 37.7715L18.5034 37.7631C18.492 37.7673 18.4806 37.7716 18.4693 37.776L18.4814 37.7715C17.8367 38.0195 17.3791 38.6447 17.3791 39.3768C17.3791 40.3264 18.1489 41.0962 19.0985 41.0962Z" fill="#276CFF"/>
<path fill-rule="evenodd" clip-rule="evenodd" d="M105.558 9.20007C112.905 9.20007 118.177 14.6686 118.177 21.428V21.4958C118.177 28.2552 112.837 33.7916 105.49 33.7916C98.1436 33.7916 92.8716 28.3231 92.8716 21.5638V21.4958C92.8716 14.7366 98.2116 9.20007 105.558 9.20007ZM58.982 9.27941C62.4435 9.27941 65.3959 10.3653 67.8054 12.2996L65.0905 16.236C62.9864 14.7769 60.9163 13.8945 58.9141 13.8945C56.9119 13.8945 55.8599 14.8108 55.8599 15.9645V16.0324C55.8599 17.5934 56.8779 18.1024 60.9842 19.1543C65.8032 20.41 68.5181 22.1407 68.5181 26.2806V26.3485C68.5181 31.0655 64.9208 33.7123 59.7964 33.7123C56.1992 33.7123 52.5681 32.4568 49.7174 29.9116L52.8056 26.2127C54.9436 27.9774 57.1834 29.0973 59.8982 29.0973C62.0362 29.0973 63.3258 28.2488 63.3258 26.8575V26.7897C63.3258 25.4663 62.5113 24.7876 58.5408 23.7695C53.7558 22.5478 50.6676 21.2244 50.6676 16.5074V16.4396C50.6676 12.13 54.1291 9.27941 58.982 9.27941ZM161.966 9.59674V25.1529C161.966 30.9271 158.573 33.7123 153.552 33.7123C149.854 33.7123 147.412 32.0819 145.783 30.146L149.074 26.4776C150.431 27.9721 151.754 28.8553 153.417 28.8553C155.384 28.8553 156.606 27.6665 156.606 24.9152V14.9116L148.798 14.9117V9.59674H161.966ZM90.7297 9.59674V14.4244H83.5049V33.3951H78.2813V14.4244H71.0565V9.59674H90.7297ZM133.487 9.59674C139.09 9.59674 142.452 12.5545 142.452 17.4501V17.5181C142.452 21.3598 140.381 23.7737 137.358 24.8956L143.165 33.3951H137.053L131.958 25.7796H127.849V33.3951H122.62V9.59674H133.487ZM105.49 14.039C101.271 14.039 98.3452 17.3607 98.3452 21.4281V21.4958C98.3452 25.5632 101.339 28.9527 105.558 28.9527C109.777 28.9527 112.704 25.631 112.704 21.5636V21.4958C112.704 17.4285 109.709 14.039 105.49 14.039ZM133.038 14.3564H127.855V21.1785H133.139C135.68 21.1785 137.136 19.8209 137.136 17.8184V17.7506C137.136 15.5103 135.578 14.3564 133.038 14.3564Z" fill="#091C45"/>
</svg>
